<svg width="570" height="30" viewBox="0 0 570 30" fill="none" xmlns="http://www.w3.org/2000/svg">
<path fill-rule="evenodd" clip-rule="evenodd" d="M559.299 15.965L552.407 24.029H540.772L526.394 7.026L526.373 7.049L526.356 7.026L518.098 16.041H389.688L389.712 16.068H383.718L383.742 16.041H386.987L384.017 12.504L388.977 7.026H379.068L384.017 12.504L381.041 16.041H307.46L303.234 20.484L294.907 29.954L289.356 23.975L256.708 24.029L245.309 10.996H215.024L208.507 18.043L141.636 18.005L136.44 12.508L128.652 20.799L126.048 18.005L0 18.037V0H570V15.965H559.299ZM496.5 12.205H498.062V7.026H496.5V12.205ZM494.137 12.205H495.695V7.026H494.137V12.205ZM483.221 12.205H484.779V7.026H483.221V12.205ZM464.492 12.205H469.171V7.026H464.492V12.205ZM277.638 18.714H279.2V16.989H277.638V18.714ZM271.658 18.714H273.22V13.536H271.658V18.714ZM259.561 18.714H261.122V16.989H259.561V18.714ZM259.561 15.26H261.122V13.536H259.561V15.26Z" fill="#FFEF00"/>
</svg>
